<svg width="584" height="160" viewBox="0 0 584 160" fill="none" xmlns="http://www.w3.org/2000/svg">
<path opacity="0.5" d="M2.98023e-07 12.2C2.98023e-07 9.13333 1 6.66666 3 4.79999C5 2.8 7.46667 1.8 10.4 1.8C13.4667 1.8 15.9333 2.8 17.8 4.79999C19.8 6.66666 20.8 9.13333 20.8 12.2V147.6C20.8 150.533 19.8 153 17.8 155C15.9333 157 13.4667 158 10.4 158C7.46667 158 5 157 3 155C1 153 2.98023e-07 150.533 2.98023e-07 147.6V12.2ZM173.542 138.8C176.609 138.8 179.076 139.667 180.942 141.4C182.809 143.133 183.742 145.4 183.742 148.2C183.742 151.133 182.809 153.533 180.942 155.4C179.076 157.133 176.609 158 173.542 158H83.1422C80.2089 158 77.7422 157 75.7422 155C73.7422 153 72.7422 150.533 72.7422 147.6V12.2C72.7422 9.13333 73.7422 6.66666 75.7422 4.79999C77.7422 2.8 80.2089 1.8 83.1422 1.8H173.542C176.609 1.8 179.076 2.73333 180.942 4.6C182.809 6.33333 183.742 8.66666 183.742 11.6C183.742 14.4 182.809 16.6667 180.942 18.4C179.076 20.1333 176.609 21 173.542 21H93.5422V69.6H150.942C153.876 69.6 156.276 70.5333 158.142 72.4C160.142 74.1333 161.142 76.4 161.142 79.2C161.142 82 160.142 84.3333 158.142 86.2C156.276 87.9333 153.876 88.8 150.942 88.8H93.5422V138.8H173.542ZM317.781 137.2C320.715 137.2 323.181 138.2 325.181 140.2C327.181 142.2 328.181 144.667 328.181 147.6C328.181 150.533 327.181 153 325.181 155C323.181 157 320.715 158 317.781 158H234.981C232.048 158 229.581 157 227.581 155C225.715 153 224.781 150.533 224.781 147.6V12.2C224.781 9.26666 225.781 6.79999 227.781 4.79999C229.781 2.8 232.181 1.8 234.981 1.8C237.915 1.8 240.381 2.8 242.381 4.79999C244.381 6.79999 245.381 9.26666 245.381 12.2V137.2H317.781ZM438.725 1.8C441.525 1.8 443.792 2.73333 445.525 4.6C447.392 6.33333 448.325 8.6 448.325 11.4C448.325 14.2 447.392 16.5333 445.525 18.4C443.792 20.1333 441.525 21 438.725 21H395.725V147.6C395.725 150.533 394.725 153 392.725 155C390.725 157 388.258 158 385.325 158C382.392 158 379.925 157 377.925 155C375.925 153 374.925 150.533 374.925 147.6V21H331.725C328.925 21 326.592 20.1333 324.725 18.4C322.992 16.5333 322.125 14.2 322.125 11.4C322.125 8.6 322.992 6.33333 324.725 4.6C326.592 2.73333 328.925 1.8 331.725 1.8H438.725ZM529.697 -4.29153e-06C541.164 -4.29153e-06 550.83 2.33333 558.697 6.99999C566.564 11.6667 573.23 18.3333 578.697 27C580.297 29.5333 581.097 31.9333 581.097 34.2C581.097 37.1333 579.764 39.5333 577.097 41.4C575.63 42.3333 573.897 42.8 571.897 42.8C569.897 42.8 568.03 42.3333 566.297 41.4C564.564 40.3333 563.23 38.9333 562.297 37.2C558.697 31.2 554.164 26.6667 548.697 23.6C543.364 20.4 536.564 18.8 528.297 18.8C518.164 18.8 509.964 20.8 503.697 24.8C497.43 28.6667 494.297 34.3333 494.297 41.8C494.297 48.7333 497.097 54.5333 502.697 59.2C508.297 63.8667 518.297 66.9333 532.697 68.4C548.697 70 561.097 74.8667 569.897 83C578.697 91 583.097 101.6 583.097 114.8C583.097 124.4 580.497 132.667 575.297 139.6C570.097 146.4 563.164 151.533 554.497 155C545.964 158.333 536.764 160 526.897 160C513.964 160 502.164 157.067 491.497 151.2C480.964 145.333 473.697 137.667 469.697 128.2C469.03 126.6 468.697 125.267 468.697 124.2C468.697 122.2 469.43 120.467 470.897 119C472.364 117.4 474.364 116.333 476.897 115.8C477.297 115.667 477.964 115.6 478.897 115.6C481.03 115.6 483.03 116.267 484.897 117.6C486.897 118.8 488.364 120.467 489.297 122.6C491.697 127.8 496.43 132.2 503.497 135.8C510.564 139.4 518.364 141.2 526.897 141.2C536.897 141.2 545.364 138.933 552.297 134.4C559.23 129.733 562.697 123.4 562.697 115.4C562.697 107.8 559.764 101.333 553.897 96C548.03 90.5333 539.097 87.2 527.097 86C510.564 84.4 497.564 79.6 488.097 71.6C478.63 63.4667 473.897 53.3333 473.897 41.2C473.897 32.6667 476.297 25.3333 481.097 19.2C486.03 12.9333 492.697 8.19999 501.097 4.99999C509.63 1.66666 519.164 -4.29153e-06 529.697 -4.29153e-06Z" fill="#259ED9"/>
</svg>
